<svg width="20" height="20" viewBox="0 0 20 20" fill="none" xmlns="http://www.w3.org/2000/svg">
<path d="M19 7.75H17.5C17.4984 6.3581 16.9448 5.02367 15.9606 4.03944C14.9764 3.05522 13.6419 2.50159 12.25 2.5V1C14.0396 1.00199 15.7554 1.71378 17.0208 2.97922C18.2862 4.24466 18.998 5.9604 19 7.75ZM17.5 19.75H17.3725C2.63503 18.9025 0.542527 6.4675 0.250027 2.6725C0.204311 2.07756 0.396789 1.48883 0.785123 1.03579C1.17346 0.58276 1.72584 0.302533 2.32078 0.256751C2.38028 0.252251 2.44003 0.250001 2.50003 0.250001H6.45253C6.75294 0.24971 7.04653 0.339633 7.29525 0.508122C7.54397 0.676611 7.73637 0.915903 7.84753 1.195L8.98753 4C9.09729 4.27266 9.12453 4.57156 9.06586 4.85957C9.00719 5.14758 8.8652 5.412 8.65753 5.62L7.06003 7.2325C7.30855 8.651 7.98732 9.95874 9.00428 10.9784C10.0212 11.998 11.3272 12.6802 12.745 12.9325L14.3725 11.32C14.5836 11.1146 14.8506 10.9759 15.14 10.9213C15.4294 10.8666 15.7285 10.8983 16 11.0125L18.8275 12.145C19.1024 12.2597 19.3369 12.4536 19.5012 12.702C19.6655 12.9504 19.7521 13.2422 19.75 13.54V17.5C19.75 18.0967 19.513 18.669 19.091 19.091C18.6691 19.5129 18.0968 19.75 17.5 19.75ZM2.50003 1.75C2.40154 1.7497 2.30395 1.76881 2.21284 1.80623C2.12173 1.84365 2.03889 1.89864 1.96904 1.96808C1.89918 2.03751 1.84369 2.12003 1.80573 2.21091C1.76776 2.30179 1.74807 2.39926 1.74778 2.49775C1.74778 2.51875 1.74853 2.5395 1.75003 2.56C2.09503 7 4.30753 17.5 17.455 18.25C17.6535 18.2619 17.8486 18.1945 17.9974 18.0625C18.1462 17.9306 18.2366 17.745 18.2485 17.5465L18.25 17.5V13.54L15.4225 12.4075L13.27 14.545L12.91 14.5C6.38503 13.6825 5.50003 7.1575 5.50003 7.09L5.45503 6.73L7.58503 4.5775L6.46003 1.75H2.50003Z" fill="#252525"/>
</svg>
